<svg width="147" height="40" viewBox="0 0 147 40" fill="current" xmlns="http://www.w3.org/2000/svg">
<path d="M39.448 30.2212C39.288 30.2212 39.152 30.1652 39.04 30.0532C38.928 29.9412 38.872 29.8052 38.872 29.6452V14.0212C38.872 13.8452 38.92 13.7012 39.016 13.5892C39.128 13.4772 39.272 13.4212 39.448 13.4212H49.864C50.04 13.4212 50.184 13.4772 50.296 13.5892C50.408 13.7012 50.464 13.8452 50.464 14.0212V15.7012C50.464 15.8772 50.408 16.0212 50.296 16.1332C50.184 16.2292 50.04 16.2772 49.864 16.2772H42.16V20.8372H49.384C49.56 20.8372 49.704 20.8932 49.816 21.0052C49.928 21.1172 49.984 21.2612 49.984 21.4372V23.1172C49.984 23.2932 49.928 23.4372 49.816 23.5492C49.704 23.6452 49.56 23.6932 49.384 23.6932H42.16V29.6452C42.16 29.8212 42.104 29.9652 41.992 30.0772C41.88 30.1732 41.736 30.2212 41.56 30.2212H39.448ZM57.4426 30.4612C55.9706 30.4612 54.8106 29.9812 53.9626 29.0212C53.1146 28.0452 52.6906 26.7252 52.6906 25.0612V18.3172C52.6906 18.1572 52.7466 18.0212 52.8586 17.9092C52.9706 17.7972 53.1066 17.7412 53.2666 17.7412H55.3786C55.5546 17.7412 55.6906 17.7972 55.7866 17.9092C55.8986 18.0052 55.9546 18.1412 55.9546 18.3172V24.9172C55.9546 26.9012 56.8266 27.8932 58.5706 27.8932C59.4026 27.8932 60.0586 27.6292 60.5386 27.1012C61.0346 26.5732 61.2826 25.8452 61.2826 24.9172V18.3172C61.2826 18.1572 61.3386 18.0212 61.4506 17.9092C61.5626 17.7972 61.6986 17.7412 61.8586 17.7412H63.9706C64.1466 17.7412 64.2826 17.7972 64.3786 17.9092C64.4906 18.0052 64.5466 18.1412 64.5466 18.3172V29.6452C64.5466 29.8052 64.4906 29.9412 64.3786 30.0532C64.2826 30.1652 64.1466 30.2212 63.9706 30.2212H62.0266C61.8666 30.2212 61.7306 30.1652 61.6186 30.0532C61.5066 29.9412 61.4506 29.8052 61.4506 29.6452V28.6612C60.5546 29.8612 59.2186 30.4612 57.4426 30.4612ZM68.2928 30.2212C68.1328 30.2212 67.9968 30.1652 67.8848 30.0532C67.7728 29.9412 67.7168 29.8052 67.7168 29.6452V18.3412C67.7168 18.1812 67.7728 18.0452 67.8848 17.9332C67.9968 17.8052 68.1328 17.7412 68.2928 17.7412H70.2368C70.4128 17.7412 70.5568 17.7972 70.6688 17.9092C70.7808 18.0212 70.8368 18.1652 70.8368 18.3412V19.3252C71.2208 18.8132 71.7008 18.4212 72.2768 18.1492C72.8688 17.8772 73.5408 17.7412 74.2928 17.7412H75.2768C75.4528 17.7412 75.5888 17.7972 75.6848 17.9092C75.7968 18.0052 75.8528 18.1412 75.8528 18.3172V20.0452C75.8528 20.2052 75.7968 20.3412 75.6848 20.4532C75.5888 20.5652 75.4528 20.6212 75.2768 20.6212H73.4048C72.6528 20.6212 72.0608 20.8372 71.6288 21.2692C71.1968 21.7012 70.9808 22.2932 70.9808 23.0452V29.6452C70.9808 29.8052 70.9248 29.9412 70.8128 30.0532C70.7008 30.1652 70.5568 30.2212 70.3808 30.2212H68.2928ZM78.3006 30.2212C78.1406 30.2212 78.0046 30.1652 77.8926 30.0532C77.7806 29.9412 77.7246 29.8052 77.7246 29.6452V18.3172C77.7246 18.1572 77.7806 18.0212 77.8926 17.9092C78.0046 17.7972 78.1406 17.7412 78.3006 17.7412H80.2686C80.4286 17.7412 80.5646 17.7972 80.6766 17.9092C80.7886 18.0212 80.8446 18.1572 80.8446 18.3172V19.3012C81.7886 18.1012 83.1246 17.5012 84.8526 17.5012C86.3246 17.5012 87.4926 17.9892 88.3566 18.9652C89.2206 19.9252 89.6526 21.2372 89.6526 22.9012V29.6452C89.6526 29.8052 89.5966 29.9412 89.4846 30.0532C89.3886 30.1652 89.2526 30.2212 89.0766 30.2212H86.9646C86.8046 30.2212 86.6686 30.1652 86.5566 30.0532C86.4446 29.9412 86.3886 29.8052 86.3886 29.6452V23.0452C86.3886 22.1012 86.1566 21.3732 85.6926 20.8612C85.2446 20.3332 84.5886 20.0692 83.7246 20.0692C82.8766 20.0692 82.2046 20.3332 81.7086 20.8612C81.2286 21.3892 80.9886 22.1172 80.9886 23.0452V29.6452C80.9886 29.8052 80.9326 29.9412 80.8206 30.0532C80.7246 30.1652 80.5886 30.2212 80.4126 30.2212H78.3006ZM93.1812 15.6772C93.0212 15.6772 92.8852 15.6212 92.7732 15.5092C92.6612 15.3972 92.6052 15.2612 92.6052 15.1012V13.3732C92.6052 13.2132 92.6612 13.0772 92.7732 12.9652C92.8852 12.8532 93.0212 12.7972 93.1812 12.7972H95.3652C95.5252 12.7972 95.6612 12.8532 95.7732 12.9652C95.9012 13.0772 95.9652 13.2132 95.9652 13.3732V15.1012C95.9652 15.2612 95.9092 15.3972 95.7972 15.5092C95.6852 15.6212 95.5412 15.6772 95.3652 15.6772H93.1812ZM93.2772 30.2212C93.1172 30.2212 92.9812 30.1652 92.8692 30.0532C92.7572 29.9412 92.7012 29.8052 92.7012 29.6452V18.3172C92.7012 18.1572 92.7572 18.0212 92.8692 17.9092C92.9812 17.7972 93.1172 17.7412 93.2772 17.7412H95.2692C95.4452 17.7412 95.5812 17.7972 95.6772 17.9092C95.7892 18.0052 95.8452 18.1412 95.8452 18.3172V29.6452C95.8452 29.8052 95.7892 29.9412 95.6772 30.0532C95.5812 30.1652 95.4452 30.2212 95.2692 30.2212H93.2772ZM99.6293 30.2212C99.4693 30.2212 99.3333 30.1652 99.2213 30.0532C99.1093 29.9412 99.0533 29.8052 99.0533 29.6452V13.7572C99.0533 13.5812 99.1093 13.4452 99.2213 13.3492C99.3333 13.2372 99.4693 13.1812 99.6293 13.1812H101.573C101.749 13.1812 101.885 13.2372 101.981 13.3492C102.093 13.4452 102.149 13.5812 102.149 13.7572V21.9652L106.181 18.1492C106.229 18.1172 106.309 18.0532 106.421 17.9572C106.517 17.8772 106.613 17.8212 106.709 17.7892C106.805 17.7572 106.925 17.7412 107.069 17.7412H109.301C109.461 17.7412 109.589 17.7892 109.685 17.8852C109.781 17.9812 109.829 18.1092 109.829 18.2692C109.829 18.4132 109.749 18.5572 109.589 18.7012L104.645 23.3332L110.189 29.2852C110.349 29.4452 110.429 29.5812 110.429 29.6932C110.429 29.8532 110.373 29.9812 110.261 30.0772C110.165 30.1732 110.045 30.2212 109.901 30.2212H107.621C107.397 30.2212 107.229 30.1972 107.117 30.1492C107.021 30.0852 106.893 29.9732 106.733 29.8132L102.149 24.9892V29.6452C102.149 29.8052 102.093 29.9412 101.981 30.0532C101.885 30.1652 101.749 30.2212 101.573 30.2212H99.6293ZM112.705 15.6772C112.545 15.6772 112.409 15.6212 112.297 15.5092C112.185 15.3972 112.129 15.2612 112.129 15.1012V13.3732C112.129 13.2132 112.185 13.0772 112.297 12.9652C112.409 12.8532 112.545 12.7972 112.705 12.7972H114.889C115.049 12.7972 115.185 12.8532 115.297 12.9652C115.425 13.0772 115.489 13.2132 115.489 13.3732V15.1012C115.489 15.2612 115.433 15.3972 115.321 15.5092C115.209 15.6212 115.065 15.6772 114.889 15.6772H112.705ZM112.801 30.2212C112.641 30.2212 112.505 30.1652 112.393 30.0532C112.281 29.9412 112.225 29.8052 112.225 29.6452V18.3172C112.225 18.1572 112.281 18.0212 112.393 17.9092C112.505 17.7972 112.641 17.7412 112.801 17.7412H114.793C114.969 17.7412 115.105 17.7972 115.201 17.9092C115.313 18.0052 115.369 18.1412 115.369 18.3172V29.6452C115.369 29.8052 115.313 29.9412 115.201 30.0532C115.105 30.1652 114.969 30.2212 114.793 30.2212H112.801ZM119.129 30.2212C118.969 30.2212 118.833 30.1652 118.721 30.0532C118.609 29.9412 118.553 29.8052 118.553 29.6452V18.3172C118.553 18.1572 118.609 18.0212 118.721 17.9092C118.833 17.7972 118.969 17.7412 119.129 17.7412H121.097C121.257 17.7412 121.393 17.7972 121.505 17.9092C121.617 18.0212 121.673 18.1572 121.673 18.3172V19.3012C122.617 18.1012 123.953 17.5012 125.681 17.5012C127.153 17.5012 128.321 17.9892 129.185 18.9652C130.049 19.9252 130.481 21.2372 130.481 22.9012V29.6452C130.481 29.8052 130.425 29.9412 130.313 30.0532C130.217 30.1652 130.081 30.2212 129.905 30.2212H127.793C127.633 30.2212 127.497 30.1652 127.385 30.0532C127.273 29.9412 127.217 29.8052 127.217 29.6452V23.0452C127.217 22.1012 126.985 21.3732 126.521 20.8612C126.073 20.3332 125.417 20.0692 124.553 20.0692C123.705 20.0692 123.033 20.3332 122.537 20.8612C122.057 21.3892 121.817 22.1172 121.817 23.0452V29.6452C121.817 29.8052 121.761 29.9412 121.649 30.0532C121.553 30.1652 121.417 30.2212 121.241 30.2212H119.129ZM139.169 35.5012C137.745 35.5012 136.593 35.2612 135.713 34.7812C134.833 34.3172 134.209 33.7812 133.841 33.1732C133.473 32.5652 133.289 32.0452 133.289 31.6132C133.289 31.4692 133.345 31.3412 133.457 31.2292C133.585 31.1172 133.721 31.0612 133.865 31.0612H135.953C136.097 31.0612 136.217 31.0932 136.313 31.1572C136.425 31.2372 136.513 31.3732 136.577 31.5652C136.737 31.9972 136.993 32.3572 137.345 32.6452C137.713 32.9492 138.281 33.1012 139.049 33.1012C140.009 33.1012 140.713 32.8852 141.161 32.4532C141.625 32.0212 141.857 31.2772 141.857 30.2212V28.5892C140.977 29.6292 139.745 30.1492 138.161 30.1492C136.497 30.1492 135.241 29.6372 134.393 28.6132C133.561 27.5892 133.113 26.2132 133.049 24.4852L133.025 23.8372L133.049 23.1892C133.113 21.4932 133.569 20.1252 134.417 19.0852C135.265 18.0292 136.513 17.5012 138.161 17.5012C139.009 17.5012 139.753 17.6612 140.393 17.9812C141.033 18.3012 141.569 18.7412 142.001 19.3012V18.3412C142.001 18.1652 142.057 18.0212 142.169 17.9092C142.281 17.7972 142.417 17.7412 142.577 17.7412H144.521C144.681 17.7412 144.817 17.8052 144.929 17.9332C145.041 18.0452 145.097 18.1812 145.097 18.3412L145.121 29.9092C145.121 31.6852 144.625 33.0612 143.633 34.0372C142.641 35.0132 141.153 35.5012 139.169 35.5012ZM139.049 27.6052C139.961 27.6052 140.641 27.3172 141.089 26.7412C141.553 26.1652 141.809 25.4612 141.857 24.6292C141.873 24.5012 141.881 24.2372 141.881 23.8372C141.881 23.4532 141.873 23.1972 141.857 23.0692C141.809 22.2212 141.553 21.5092 141.089 20.9332C140.641 20.3572 139.961 20.0692 139.049 20.0692C137.321 20.0692 136.409 21.1332 136.313 23.2612L136.289 23.8372C136.289 24.9732 136.489 25.8852 136.889 26.5732C137.305 27.2612 138.025 27.6052 139.049 27.6052Z" fill="#555555"/>
<path d="M5.96954 7.1676C6.61481 7.1676 7.14111 6.6413 7.14111 5.99603C7.14111 5.35077 6.61481 4.82446 5.96954 4.82446C5.32428 4.82446 4.79797 5.35077 4.79797 5.99603C4.79797 6.6449 5.32428 7.1676 5.96954 7.1676Z" fill="#85B839"/>
<path d="M9.59605 25.0045V27.2539C11.4201 25.9309 13.5974 25.2064 15.8937 25.2064C18.1864 25.2064 20.3673 25.9309 22.1913 27.2539V25.0045C22.1913 23.1156 23.1394 21.4465 24.5777 20.4408C24.4552 18.0688 22.4941 16.1763 20.0933 16.1763H11.6941C9.29325 16.1763 7.33222 18.0688 7.20966 20.4408C8.64798 21.4465 9.59605 23.1156 9.59605 25.0045Z" fill="#85B839"/>
<path d="M22.8222 12.7517H8.91473V14.6478H22.8222V12.7517Z" fill="#85B839"/>
<path d="M22.1913 29.2474C20.4754 27.6397 18.2548 26.7493 15.8937 26.7493C13.5325 26.7493 11.3119 27.6397 9.59601 29.2474V31.3022H22.1913V29.2474Z" fill="#85B839"/>
<path d="M25.551 7.1676C26.1963 7.1676 26.7226 6.6413 26.7226 5.99603C26.7226 5.35077 26.1963 4.82446 25.551 4.82446C24.9058 4.82446 24.3795 5.35077 24.3795 5.99603C24.3795 6.6449 24.9058 7.1676 25.551 7.1676Z" fill="#85B839"/>
<path d="M15.9117 3.99906C16.9535 3.99906 17.8006 3.15192 17.8006 2.11012C17.8006 1.06833 16.9535 0.221191 15.9117 0.221191C14.8699 0.221191 14.0228 1.06833 14.0228 2.11012C14.0228 3.15192 14.8699 3.99906 15.9117 3.99906Z" fill="#85B839"/>
<path d="M27.7608 20.9778C25.5402 20.9778 23.7342 22.7838 23.7342 25.0044V32.8413H8.05319V25.0044C8.05319 22.7838 6.24717 20.9778 4.0266 20.9778C1.80602 20.9778 0 22.7838 0 25.0044C0 27.225 1.80602 29.031 4.0266 29.031H4.79803V36.1001H26.9894V29.031H27.7608C29.9814 29.031 31.7874 27.225 31.7874 25.0044C31.7874 22.7838 29.9814 20.9778 27.7608 20.9778ZM4.0266 26.2553C3.33447 26.2553 2.77572 25.6965 2.77572 25.0044C2.77572 24.3123 3.33807 23.7535 4.0266 23.7535C4.71872 23.7535 5.27747 24.3123 5.27747 25.0044C5.27747 25.6965 4.71872 26.2553 4.0266 26.2553ZM27.7608 26.2553C27.0687 26.2553 26.5099 25.6965 26.5099 25.0044C26.5099 24.3123 27.0687 23.7535 27.7608 23.7535C28.4529 23.7535 29.0117 24.3123 29.0117 25.0044C29.0117 25.6965 28.4529 26.2553 27.7608 26.2553Z" fill="#85B839"/>
<path d="M8.69839 11.2087H23.0348C23.8171 10.3616 24.383 9.36665 24.6966 8.2816C23.7702 8.76825 22.732 9.03861 21.665 9.03861C19.138 9.03861 16.9499 7.59668 15.8648 5.49146C14.7797 7.59307 12.588 9.03861 10.0646 9.03861C8.99398 9.03861 7.9594 8.77906 7.03656 8.29602C7.35739 9.37386 7.91974 10.3652 8.69839 11.2087Z" fill="#85B839"/>
<path d="M9.59609 37.6431H8.05322V39.1859H9.59609V37.6431Z" fill="#85B839"/>
<path d="M23.7342 37.6431H22.1913V39.1859H23.7342V37.6431Z" fill="#85B839"/>
</svg>
